<?xml version="1.0" encoding="UTF-8" standalone="no"?>
<!-- Created with Inkscape (http://www.inkscape.org/) -->

<svg
   xmlns:dc="http://purl.org/dc/elements/1.1/"
   xmlns:cc="http://creativecommons.org/ns#"
   xmlns:rdf="http://www.w3.org/1999/02/22-rdf-syntax-ns#"
   xmlns:svg="http://www.w3.org/2000/svg"
   xmlns="http://www.w3.org/2000/svg"
   xmlns:sodipodi="http://sodipodi.sourceforge.net/DTD/sodipodi-0.dtd"
   xmlns:inkscape="http://www.inkscape.org/namespaces/inkscape"
   width="310"
   height="100"
   viewBox="0 0 82.020832 26.458333"
   version="1.1"
   id="svg6764"
   sodipodi:docname="logo.svg"
   inkscape:version="0.92.3 (2405546, 2018-03-11)">
  <defs
     id="defs6758" />
  <sodipodi:namedview
     id="base"
     pagecolor="#ffffff"
     bordercolor="#666666"
     borderopacity="1.0"
     inkscape:pageopacity="0.0"
     inkscape:pageshadow="2"
     inkscape:zoom="1"
     inkscape:cx="203.46146"
     inkscape:cy="17.064347"
     inkscape:document-units="px"
     inkscape:current-layer="layer1"
     showgrid="false"
     fit-margin-top="0.1"
     fit-margin-left="0.1"
     fit-margin-right="0.1"
     fit-margin-bottom="0.1"
     inkscape:window-width="1920"
     inkscape:window-height="1121"
     inkscape:window-x="-9"
     inkscape:window-y="-9"
     inkscape:window-maximized="1"
     units="px" />
  <metadata
     id="metadata6761">
    <rdf:RDF>
      <cc:Work
         rdf:about="">
        <dc:format>image/svg+xml</dc:format>
        <dc:type
           rdf:resource="http://purl.org/dc/dcmitype/StillImage" />
        <dc:title></dc:title>
      </cc:Work>
    </rdf:RDF>
  </metadata>
  <g
     inkscape:label="Layer 1"
     inkscape:groupmode="layer"
     id="layer1"
     transform="translate(-5.8877686,-61.602361)">
    <g
       transform="matrix(0.00986836,0,0,0.00986836,-796.09816,-207.5906)"
       id="g9121-7-3"
       inkscape:export-filename="C:\Users\ccy\Desktop\aludasite\web\logo.png"
       inkscape:export-xdpi="203.14999"
       inkscape:export-ydpi="203.14999">
      <path
         style="fill:#1a4396;fill-opacity:1;stroke:none;stroke-width:0.02263185"
         d="m 31.318359,19.029297 c -1.365993,0.04244 -2.780116,0.467822 -3.80664,1.429687 -2.053026,1.923708 -3.217966,6.238723 -0.146485,8.970704 1.54069,1.370402 3.218743,2.641881 4.513672,3.574218 2.021604,-1.722347 4.016633,-3.456085 4.892578,-4.332031 0.917518,-0.917518 1.572682,-1.889727 1.978516,-2.648437 0.202917,-0.379333 0.343705,-0.708215 0.421875,-0.923829 0.03336,-0.092 0.04266,-0.188294 0.04687,-0.240234 l -0.04102,-1.589844 c -1.29958,-1.065812 -3.170456,-2.579548 -4.34375,-3.376953 -0.832535,-0.565796 -2.149631,-0.905719 -3.515625,-0.863281 z"
         transform="matrix(44.18552,0,0,44.18552,81202.102,27290.324)"
         id="path4085-8-1-6-4-0-3-1-4-3-0-9-0-2-5-4-39-5-7"
         inkscape:connector-curvature="0" />
      <path
         style="fill:#760000;fill-opacity:1;stroke:none;stroke-width:0.02263185"
         d="M 11.480469,27.611328 C 9.4587537,29.333767 7.4619284,31.069318 6.5859375,31.945312 5.6683971,32.862842 5.0152093,33.835058 4.609375,34.59375 4.4064578,34.973098 4.2656704,35.300002 4.1875,35.515625 4.154163,35.607565 4.142904,35.705859 4.138672,35.757812 l 0.041016,1.587891 c 1.2994118,1.065701 3.1701424,2.581304 4.34375,3.378906 1.66507,1.131593 5.271193,1.357301 7.324218,-0.566406 2.053026,-1.923707 3.216013,-6.240675 0.144532,-8.972656 -1.539768,-1.369594 -3.2171,-2.642031 -4.511719,-3.574219 z"
         id="path4085-2-6-5-4-1-2-7-8-6-2-2-2-4-0-4-3-1"
         transform="matrix(44.18552,0,0,44.18552,81202.102,27290.324)"
         inkscape:connector-curvature="0" />
      <g
         style="fill:#ffffff;fill-opacity:1;stroke:#ffffff;stroke-width:159.8250885;stroke-linecap:round;stroke-linejoin:round;stroke-miterlimit:4;stroke-dasharray:none;stroke-opacity:1"
         id="g8069-8-1-9-7-53-0-7"
         transform="translate(63847.959,21613.202)" />
      <path
         inkscape:connector-curvature="0"
         id="path4087-9-3-7-9-6-4-0-2-5-2-4-2-8-1-3-5-7"
         d="m 81304.796,28860.968 c -0.505,-19.193 37.881,-121.724 131.825,-215.668 93.944,-93.944 398,-345.471 466.691,-402.04 68.69,-56.568 294.964,-226.274 392.949,-316.177 97.985,-89.904 129.3,-252.538 51.518,-395.98 -77.782,-143.442 -299.005,-197.99 -442.447,-73.741 -143.442,124.248 -459.619,393.959 -494.975,430.325 -35.355,36.365 -103.54,127.279 -108.591,168.948 -5.051,41.669 -2.297,293.102 -2.297,293.102 0,0 0,487.143 0,496.786 0,9.643 5.327,14.445 5.327,14.445 z"
         style="fill:#1a4396;fill-opacity:1;stroke:none" />
      <path
         style="fill:#760000;fill-opacity:1;stroke:none"
         d="m 83015.213,28398.041 c 0.505,19.193 -37.881,121.724 -131.825,215.668 -93.944,93.944 -398,345.472 -466.691,402.04 -68.69,56.569 -294.964,226.275 -392.949,316.178 -97.985,89.904 -129.299,252.538 -51.518,395.98 77.782,143.443 299.005,197.991 442.447,73.742 143.442,-124.25 459.62,-393.96 494.975,-430.326 35.355,-36.365 103.541,-127.279 108.591,-168.948 5.051,-41.669 2.297,-293.103 2.297,-293.103 0,0 0,-487.143 0,-496.786 0,-9.643 -5.327,-14.445 -5.327,-14.445 z"
         id="path8271-1-0-7-9-4-7-4"
         inkscape:connector-curvature="0" />
    </g>
    <g
       aria-label="Aluda"
       style="font-style:normal;font-variant:normal;font-weight:bold;font-stretch:normal;font-size:4.11796141px;line-height:0%;font-family:'Kozuka Gothic Pro';-inkscape-font-specification:'Kozuka Gothic Pro Bold';letter-spacing:0px;word-spacing:0px;fill:#1a4396;fill-opacity:1;stroke:none;stroke-width:0.34316349"
       id="text3037-0-1"
       transform="matrix(1.6480165,0,0,1.6480165,-4.4714466,-56.974929)">
      <path
         d="m 24.942124,73.980846 h -2.238372 l -2.04766,7.759022 h 1.786683 l 0.421577,-1.806758 h 1.786683 l 0.45169,1.806758 h 1.826833 z m -1.866983,4.617271 0.351314,-1.55582 c 0.09034,-0.441652 0.220826,-1.154318 0.321201,-1.626082 h 0.02008 c 0.100376,0.471764 0.230864,1.164355 0.331239,1.626082 l 0.341277,1.55582 z"
         style="font-style:normal;font-variant:normal;font-weight:900;font-stretch:normal;font-size:10.0375452px;line-height:1.25;font-family:'Kozuka Gothic Pro';-inkscape-font-specification:'Kozuka Gothic Pro Heavy';fill:#1a4396;fill-opacity:1;stroke-width:0.34316349"
         id="path7416"
         inkscape:connector-curvature="0" />
      <path
         d="m 29.520813,73.659644 h -1.766608 v 8.080224 h 1.766608 z"
         style="font-style:normal;font-variant:normal;font-weight:900;font-stretch:normal;font-size:10.0375452px;line-height:1.25;font-family:'Kozuka Gothic Pro';-inkscape-font-specification:'Kozuka Gothic Pro Heavy';fill:#1a4396;fill-opacity:1;stroke-width:0.34316349"
         id="path7418"
         inkscape:connector-curvature="0" />
      <path
         d="m 35.672573,76.08873 h -1.766608 v 3.462953 c 0,0.57214 -0.351314,0.853192 -0.712665,0.853192 -0.49184,0 -0.702629,-0.441652 -0.702629,-1.204506 V 76.08873 h -1.766607 v 3.362578 c 0,1.626082 0.642402,2.398973 1.786683,2.398973 0.823078,0 1.334993,-0.451689 1.575894,-0.813041 h 0.03011 l 0.0803,0.702628 h 1.525707 c -0.02007,-0.501877 -0.05019,-1.124205 -0.05019,-1.816796 z"
         style="font-style:normal;font-variant:normal;font-weight:900;font-stretch:normal;font-size:10.0375452px;line-height:1.25;font-family:'Kozuka Gothic Pro';-inkscape-font-specification:'Kozuka Gothic Pro Heavy';fill:#1a4396;fill-opacity:1;stroke-width:0.34316349"
         id="path7420"
         inkscape:connector-curvature="0" />
      <path
         d="m 41.858995,73.649607 h -1.766608 v 2.910888 h -0.03011 c -0.190714,-0.341277 -0.622328,-0.582178 -1.224581,-0.582178 -1.174393,0 -2.218297,1.043905 -2.218297,2.961076 0,1.666233 0.843153,2.910888 2.137997,2.910888 0.602253,0 1.18443,-0.311164 1.485557,-0.843154 h 0.03011 l 0.0803,0.732741 h 1.545781 c -0.02007,-0.451689 -0.04015,-1.10413 -0.04015,-1.726458 z m -1.766608,5.791663 c 0,0.772891 -0.441652,0.98368 -0.772891,0.98368 -0.542027,0 -0.923454,-0.511915 -0.923454,-1.485557 0,-0.853191 0.291089,-1.555819 0.933492,-1.555819 0.301126,0 0.762853,0.230863 0.762853,1.013792 z"
         style="font-style:normal;font-variant:normal;font-weight:900;font-stretch:normal;font-size:10.0375452px;line-height:1.25;font-family:'Kozuka Gothic Pro';-inkscape-font-specification:'Kozuka Gothic Pro Heavy';fill:#1a4396;fill-opacity:1;stroke-width:0.34316349"
         id="path7422"
         inkscape:connector-curvature="0" />
      <path
         d="m 47.522052,78.417441 c 0,-1.254693 -0.461727,-2.439124 -2.328711,-2.439124 -0.973642,0 -1.706382,0.281051 -2.067734,0.481802 l 0.321201,1.144281 c 0.361352,-0.220826 0.863229,-0.381427 1.395219,-0.381427 0.712666,0 0.903379,0.311164 0.903379,0.742778 -1.666232,0.01004 -3.001226,0.652441 -3.001226,2.148035 0,0.953567 0.672516,1.736495 1.696345,1.736495 0.582178,0 1.114168,-0.200751 1.455445,-0.65244 h 0.03011 l 0.100376,0.542027 h 1.585932 c -0.07026,-0.341276 -0.09034,-0.833116 -0.09034,-1.334993 z m -1.71642,1.385181 c 0,0.53199 -0.401502,0.792966 -0.762854,0.792966 -0.311164,0 -0.592215,-0.200751 -0.592215,-0.662478 0,-0.65244 0.622328,-0.863229 1.355069,-0.863229 z"
         style="font-style:normal;font-variant:normal;font-weight:900;font-stretch:normal;font-size:10.0375452px;line-height:1.25;font-family:'Kozuka Gothic Pro';-inkscape-font-specification:'Kozuka Gothic Pro Heavy';fill:#1a4396;fill-opacity:1;stroke-width:0.34316349"
         id="path7424"
         inkscape:connector-curvature="0" />
    </g>
    <g
       aria-label="Pharmaceuticals, Inc."
       style="font-style:normal;font-variant:normal;font-weight:bold;font-stretch:normal;font-size:3.63380122px;line-height:0%;font-family:'Kozuka Gothic Pro';-inkscape-font-specification:'Kozuka Gothic Pro Bold';letter-spacing:0px;word-spacing:0px;fill:#1a4396;fill-opacity:1;stroke:none;stroke-width:0.1238647"
       id="text3037-0-1-5"
       transform="matrix(1.6480165,0,0,1.6480165,-4.5642473,-56.974929)">
      <path
         d="m 20.940395,86.358391 h 0.534169 v -1.046535 c 0.05451,0.0109 0.119915,0.01453 0.196225,0.01453 0.417887,0 1.057436,-0.170788 1.057436,-0.93752 0,-0.258 -0.101746,-0.483296 -0.268901,-0.625014 -0.178056,-0.15262 -0.443324,-0.221662 -0.795802,-0.221662 -0.308874,0 -0.548704,0.02544 -0.723127,0.05814 z m 0.534169,-2.376506 c 0.04724,-0.0109 0.123549,-0.0218 0.232563,-0.0218 0.297972,0 0.48693,0.156253 0.48693,0.454225 0,0.301606 -0.196226,0.490563 -0.530535,0.490563 -0.07994,0 -0.138085,-0.0036 -0.188958,-0.01454 z"
         style="font-style:normal;font-variant:normal;font-weight:bold;font-stretch:normal;font-size:3.63380122px;line-height:1.25;font-family:'Kozuka Gothic Pro';-inkscape-font-specification:'Kozuka Gothic Pro Bold';fill:#1a4396;fill-opacity:1;stroke-width:0.1238647"
         id="path7427"
         inkscape:connector-curvature="0" />
      <path
         d="m 24.819875,85.148335 c 0,-0.595943 -0.283436,-0.857577 -0.643182,-0.857577 -0.174423,0 -0.396085,0.07631 -0.541437,0.28707 h -0.0073 v -1.141013 h -0.537803 v 2.921576 h 0.537803 v -1.228225 c 0,-0.301606 0.207126,-0.396084 0.341577,-0.396084 0.232563,0 0.312507,0.199859 0.312507,0.457859 v 1.16645 h 0.537802 z"
         style="font-style:normal;font-variant:normal;font-weight:bold;font-stretch:normal;font-size:3.63380122px;line-height:1.25;font-family:'Kozuka Gothic Pro';-inkscape-font-specification:'Kozuka Gothic Pro Bold';fill:#1a4396;fill-opacity:1;stroke-width:0.1238647"
         id="path7429"
         inkscape:connector-curvature="0" />
      <path
         d="m 26.809098,85.137434 c 0,-0.443324 -0.170789,-0.843042 -0.799437,-0.843042 -0.31614,0 -0.566873,0.09085 -0.701323,0.170788 l 0.101746,0.348845 c 0.130817,-0.07994 0.312507,-0.138084 0.497831,-0.138084 0.294338,0 0.36338,0.152619 0.36338,0.352479 -0.643183,0 -1.104675,0.243464 -1.104675,0.763098 0,0.327042 0.232563,0.606845 0.606844,0.606845 0.225296,0 0.421521,-0.09085 0.537803,-0.250733 h 0.0109 l 0.0327,0.210761 h 0.483295 c -0.0218,-0.123549 -0.02907,-0.301606 -0.02907,-0.479662 z m -0.523268,0.526901 c 0,0.258 -0.21076,0.348845 -0.337943,0.348845 -0.134451,0 -0.254366,-0.08358 -0.254366,-0.276169 0,-0.294338 0.301605,-0.36338 0.592309,-0.36338 z"
         style="font-style:normal;font-variant:normal;font-weight:bold;font-stretch:normal;font-size:3.63380122px;line-height:1.25;font-family:'Kozuka Gothic Pro';-inkscape-font-specification:'Kozuka Gothic Pro Bold';fill:#1a4396;fill-opacity:1;stroke-width:0.1238647"
         id="path7431"
         inkscape:connector-curvature="0" />
      <path
         d="m 28.396444,84.301659 c -0.03634,-0.0073 -0.06904,-0.0109 -0.119915,-0.0109 -0.188958,0 -0.406986,0.134451 -0.501465,0.396084 h -0.01454 l -0.0218,-0.352478 h -0.461492 c 0.0073,0.18169 0.01453,0.381549 0.01453,0.632281 v 1.391746 h 0.537802 v -1.046535 c 0,-0.345211 0.185324,-0.508732 0.428789,-0.508732 0.05451,0 0.09811,0.0036 0.138084,0.0109 z"
         style="font-style:normal;font-variant:normal;font-weight:bold;font-stretch:normal;font-size:3.63380122px;line-height:1.25;font-family:'Kozuka Gothic Pro';-inkscape-font-specification:'Kozuka Gothic Pro Bold';fill:#1a4396;fill-opacity:1;stroke-width:0.1238647"
         id="path7433"
         inkscape:connector-curvature="0" />
      <path
         d="m 31.498689,85.130166 c 0,-0.585042 -0.272535,-0.835774 -0.625014,-0.835774 -0.225296,0 -0.432423,0.09085 -0.599577,0.337943 h -0.0073 c -0.07994,-0.207126 -0.268901,-0.337943 -0.516,-0.337943 -0.301605,0 -0.479662,0.167155 -0.57414,0.312507 h -0.0109 l -0.02544,-0.268902 h -0.457859 c 0.0073,0.178057 0.01453,0.370648 0.01453,0.606845 v 1.413549 h 0.526901 v -1.217324 c 0,-0.272535 0.174423,-0.410619 0.323408,-0.410619 0.210761,0 0.287071,0.192591 0.287071,0.432422 v 1.195521 h 0.526901 v -1.228225 c 0,-0.283437 0.167155,-0.399718 0.316141,-0.399718 0.214394,0 0.294337,0.192591 0.294337,0.483295 v 1.144648 h 0.526902 z"
         style="font-style:normal;font-variant:normal;font-weight:bold;font-stretch:normal;font-size:3.63380122px;line-height:1.25;font-family:'Kozuka Gothic Pro';-inkscape-font-specification:'Kozuka Gothic Pro Bold';fill:#1a4396;fill-opacity:1;stroke-width:0.1238647"
         id="path7435"
         inkscape:connector-curvature="0" />
      <path
         d="m 33.487627,85.137434 c 0,-0.443324 -0.170789,-0.843042 -0.799436,-0.843042 -0.316141,0 -0.566873,0.09085 -0.701324,0.170788 l 0.101747,0.348845 c 0.130816,-0.07994 0.312506,-0.138084 0.49783,-0.138084 0.294338,0 0.36338,0.152619 0.36338,0.352479 -0.643182,0 -1.104675,0.243464 -1.104675,0.763098 0,0.327042 0.232563,0.606845 0.606845,0.606845 0.225295,0 0.421521,-0.09085 0.537802,-0.250733 h 0.0109 l 0.0327,0.210761 h 0.483295 c -0.0218,-0.123549 -0.02907,-0.301606 -0.02907,-0.479662 z m -0.523267,0.526901 c 0,0.258 -0.210761,0.348845 -0.337944,0.348845 -0.134451,0 -0.254366,-0.08358 -0.254366,-0.276169 0,-0.294338 0.301606,-0.36338 0.59231,-0.36338 z"
         style="font-style:normal;font-variant:normal;font-weight:bold;font-stretch:normal;font-size:3.63380122px;line-height:1.25;font-family:'Kozuka Gothic Pro';-inkscape-font-specification:'Kozuka Gothic Pro Bold';fill:#1a4396;fill-opacity:1;stroke-width:0.1238647"
         id="path7437"
         inkscape:connector-curvature="0" />
      <path
         d="m 35.271199,85.904166 c -0.08721,0.03997 -0.192592,0.06541 -0.327042,0.06541 -0.308873,0 -0.537803,-0.228929 -0.537803,-0.625014 0,-0.356112 0.196225,-0.628647 0.534169,-0.628647 0.148986,0 0.247098,0.0327 0.316141,0.06541 l 0.08721,-0.410619 c -0.08721,-0.03634 -0.247099,-0.07631 -0.421521,-0.07631 -0.668619,0 -1.06107,0.465126 -1.06107,1.071971 0,0.643183 0.385183,1.028366 0.977493,1.028366 0.214394,0 0.399718,-0.04361 0.490563,-0.08721 z"
         style="font-style:normal;font-variant:normal;font-weight:bold;font-stretch:normal;font-size:3.63380122px;line-height:1.25;font-family:'Kozuka Gothic Pro';-inkscape-font-specification:'Kozuka Gothic Pro Bold';fill:#1a4396;fill-opacity:1;stroke-width:0.1238647"
         id="path7439"
         inkscape:connector-curvature="0" />
      <path
         d="m 37.123529,85.907799 c -0.138084,0.04724 -0.294338,0.08358 -0.494197,0.08358 -0.290704,0 -0.537802,-0.138085 -0.552338,-0.483296 h 1.210056 c 0.0109,-0.05814 0.01454,-0.13445 0.01454,-0.214394 0,-0.654084 -0.319774,-1.002929 -0.810337,-1.002929 -0.59231,0 -0.92662,0.501464 -0.92662,1.082873 0,0.628647 0.356113,1.021098 0.981127,1.021098 0.250732,0 0.486929,-0.04361 0.654084,-0.116282 z M 36.076994,85.1338 c 0.01454,-0.199859 0.12355,-0.468761 0.381549,-0.468761 0.265268,0 0.348845,0.258 0.345212,0.468761 z"
         style="font-style:normal;font-variant:normal;font-weight:bold;font-stretch:normal;font-size:3.63380122px;line-height:1.25;font-family:'Kozuka Gothic Pro';-inkscape-font-specification:'Kozuka Gothic Pro Bold';fill:#1a4396;fill-opacity:1;stroke-width:0.1238647"
         id="path7441"
         inkscape:connector-curvature="0" />
      <path
         d="m 39.382958,84.334364 h -0.537803 v 1.246393 c 0,0.22893 -0.156253,0.377916 -0.330676,0.377916 -0.221662,0 -0.308873,-0.192592 -0.308873,-0.497831 v -1.126478 h -0.537803 v 1.206422 c 0,0.606844 0.261634,0.857577 0.646817,0.857577 0.312507,0 0.497831,-0.178057 0.581408,-0.308873 h 0.0109 l 0.02544,0.268901 h 0.468761 c -0.0073,-0.170789 -0.01817,-0.377916 -0.01817,-0.617746 z"
         style="font-style:normal;font-variant:normal;font-weight:bold;font-stretch:normal;font-size:3.63380122px;line-height:1.25;font-family:'Kozuka Gothic Pro';-inkscape-font-specification:'Kozuka Gothic Pro Bold';fill:#1a4396;fill-opacity:1;stroke-width:0.1238647"
         id="path7443"
         inkscape:connector-curvature="0" />
      <path
         d="m 39.955338,84.334364 h -0.265267 v 0.396084 h 0.265267 v 0.933887 c 0,0.225295 0.0109,0.730394 0.59231,0.730394 0.156253,0 0.28707,-0.01817 0.359746,-0.04724 l -0.0073,-0.410619 c -0.05451,0.0109 -0.09811,0.01817 -0.174423,0.01817 -0.163521,0 -0.239831,-0.101747 -0.239831,-0.345211 v -0.87938 h 0.446958 V 84.334365 H 40.48584 v -0.526902 l -0.530535,0.156254 z"
         style="font-style:normal;font-variant:normal;font-weight:bold;font-stretch:normal;font-size:3.63380122px;line-height:1.25;font-family:'Kozuka Gothic Pro';-inkscape-font-specification:'Kozuka Gothic Pro Bold';fill:#1a4396;fill-opacity:1;stroke-width:0.1238647"
         id="path7445"
         inkscape:connector-curvature="0" />
      <path
         d="m 41.822262,83.782026 c 0,-0.167155 -0.116282,-0.287071 -0.290705,-0.287071 -0.167154,0 -0.28707,0.119916 -0.28707,0.287071 0,0.163521 0.116282,0.28707 0.28707,0.28707 0.167155,0 0.290705,-0.112648 0.290705,-0.28707 z m -0.01817,0.552338 H 41.26629 v 2.024027 h 0.537803 z"
         style="font-style:normal;font-variant:normal;font-weight:bold;font-stretch:normal;font-size:3.63380122px;line-height:1.25;font-family:'Kozuka Gothic Pro';-inkscape-font-specification:'Kozuka Gothic Pro Bold';fill:#1a4396;fill-opacity:1;stroke-width:0.1238647"
         id="path7447"
         inkscape:connector-curvature="0" />
      <path
         d="m 43.589198,85.904166 c -0.08721,0.03997 -0.192592,0.06541 -0.327042,0.06541 -0.308873,0 -0.537803,-0.228929 -0.537803,-0.625014 0,-0.356112 0.196225,-0.628647 0.534169,-0.628647 0.148986,0 0.247098,0.0327 0.316141,0.06541 l 0.08721,-0.410619 c -0.08721,-0.03634 -0.247099,-0.07631 -0.421521,-0.07631 -0.66862,0 -1.06107,0.465126 -1.06107,1.071971 0,0.643183 0.385183,1.028366 0.977492,1.028366 0.214395,0 0.399719,-0.04361 0.490564,-0.08721 z"
         style="font-style:normal;font-variant:normal;font-weight:bold;font-stretch:normal;font-size:3.63380122px;line-height:1.25;font-family:'Kozuka Gothic Pro';-inkscape-font-specification:'Kozuka Gothic Pro Bold';fill:#1a4396;fill-opacity:1;stroke-width:0.1238647"
         id="path7449"
         inkscape:connector-curvature="0" />
      <path
         d="m 45.503303,85.137434 c 0,-0.443324 -0.170789,-0.843042 -0.799437,-0.843042 -0.31614,0 -0.566873,0.09085 -0.701323,0.170788 l 0.101746,0.348845 c 0.130817,-0.07994 0.312507,-0.138084 0.497831,-0.138084 0.294338,0 0.36338,0.152619 0.36338,0.352479 -0.643183,0 -1.104676,0.243464 -1.104676,0.763098 0,0.327042 0.232564,0.606845 0.606845,0.606845 0.225296,0 0.421521,-0.09085 0.537803,-0.250733 h 0.0109 l 0.0327,0.210761 h 0.483296 c -0.0218,-0.123549 -0.02907,-0.301606 -0.02907,-0.479662 z m -0.523268,0.526901 c 0,0.258 -0.21076,0.348845 -0.337943,0.348845 -0.134451,0 -0.254366,-0.08358 -0.254366,-0.276169 0,-0.294338 0.301605,-0.36338 0.592309,-0.36338 z"
         style="font-style:normal;font-variant:normal;font-weight:bold;font-stretch:normal;font-size:3.63380122px;line-height:1.25;font-family:'Kozuka Gothic Pro';-inkscape-font-specification:'Kozuka Gothic Pro Bold';fill:#1a4396;fill-opacity:1;stroke-width:0.1238647"
         id="path7451"
         inkscape:connector-curvature="0" />
      <path
         d="m 46.523775,83.436815 h -0.537802 v 2.921576 h 0.537802 z"
         style="font-style:normal;font-variant:normal;font-weight:bold;font-stretch:normal;font-size:3.63380122px;line-height:1.25;font-family:'Kozuka Gothic Pro';-inkscape-font-specification:'Kozuka Gothic Pro Bold';fill:#1a4396;fill-opacity:1;stroke-width:0.1238647"
         id="path7453"
         inkscape:connector-curvature="0" />
      <path
         d="m 48.17443,84.403406 c -0.116282,-0.06177 -0.294338,-0.112648 -0.501465,-0.112648 -0.450591,0 -0.741295,0.276169 -0.741295,0.639549 0,0.221662 0.138084,0.436056 0.516,0.588676 0.221661,0.09448 0.290704,0.159887 0.290704,0.283436 0,0.123549 -0.09085,0.203493 -0.279803,0.203493 -0.167155,0 -0.367014,-0.07268 -0.472394,-0.134451 l -0.101747,0.388817 c 0.134451,0.07994 0.348845,0.134451 0.570507,0.134451 0.505099,0 0.795803,-0.254366 0.795803,-0.639549 0,-0.279803 -0.159888,-0.476028 -0.501465,-0.617746 -0.232563,-0.09811 -0.308873,-0.156254 -0.308873,-0.268902 0,-0.109014 0.08721,-0.192591 0.250732,-0.192591 0.15262,0 0.294338,0.05814 0.381549,0.10538 z"
         style="font-style:normal;font-variant:normal;font-weight:bold;font-stretch:normal;font-size:3.63380122px;line-height:1.25;font-family:'Kozuka Gothic Pro';-inkscape-font-specification:'Kozuka Gothic Pro Bold';fill:#1a4396;fill-opacity:1;stroke-width:0.1238647"
         id="path7455"
         inkscape:connector-curvature="0" />
      <path
         d="m 48.688102,85.75518 c -0.05087,0.345211 -0.163521,0.777633 -0.279803,1.108309 l 0.356113,-0.03634 c 0.174422,-0.283436 0.356112,-0.72676 0.479662,-1.115577 z"
         style="font-style:normal;font-variant:normal;font-weight:bold;font-stretch:normal;font-size:3.63380122px;line-height:1.25;font-family:'Kozuka Gothic Pro';-inkscape-font-specification:'Kozuka Gothic Pro Bold';fill:#1a4396;fill-opacity:1;stroke-width:0.1238647"
         id="path7457"
         inkscape:connector-curvature="0" />
      <path
         d="M 50.422447,86.358391 H 50.96025 V 83.563998 H 50.422447 Z"
         style="font-style:normal;font-variant:normal;font-weight:bold;font-stretch:normal;font-size:3.63380122px;line-height:1.25;font-family:'Kozuka Gothic Pro';-inkscape-font-specification:'Kozuka Gothic Pro Bold';fill:#1a4396;fill-opacity:1;stroke-width:0.1238647"
         id="path7459"
         inkscape:connector-curvature="0" />
      <path
         d="m 53.208948,85.119265 c 0,-0.566873 -0.28707,-0.824873 -0.657718,-0.824873 -0.294338,0 -0.494197,0.167155 -0.585042,0.31614 h -0.0109 l -0.02544,-0.272535 h -0.465126 c 0.0073,0.178057 0.01454,0.370648 0.01454,0.606845 v 1.413549 h 0.537802 v -1.202788 c 0,-0.308874 0.199859,-0.421521 0.345211,-0.421521 0.22893,0 0.308874,0.196225 0.308874,0.443323 v 1.180986 h 0.537802 z"
         style="font-style:normal;font-variant:normal;font-weight:bold;font-stretch:normal;font-size:3.63380122px;line-height:1.25;font-family:'Kozuka Gothic Pro';-inkscape-font-specification:'Kozuka Gothic Pro Bold';fill:#1a4396;fill-opacity:1;stroke-width:0.1238647"
         id="path7461"
         inkscape:connector-curvature="0" />
      <path
         d="m 54.98741,85.904166 c -0.08721,0.03997 -0.192591,0.06541 -0.327042,0.06541 -0.308873,0 -0.537803,-0.228929 -0.537803,-0.625014 0,-0.356112 0.196226,-0.628647 0.534169,-0.628647 0.148986,0 0.247099,0.0327 0.316141,0.06541 l 0.08721,-0.410619 c -0.08721,-0.03634 -0.247098,-0.07631 -0.421521,-0.07631 -0.668619,0 -1.06107,0.465126 -1.06107,1.071971 0,0.643183 0.385183,1.028366 0.977493,1.028366 0.214394,0 0.399718,-0.04361 0.490563,-0.08721 z"
         style="font-style:normal;font-variant:normal;font-weight:bold;font-stretch:normal;font-size:3.63380122px;line-height:1.25;font-family:'Kozuka Gothic Pro';-inkscape-font-specification:'Kozuka Gothic Pro Bold';fill:#1a4396;fill-opacity:1;stroke-width:0.1238647"
         id="path7463"
         inkscape:connector-curvature="0" />
      <path
         d="m 55.676922,86.398363 c 0.196225,0 0.323408,-0.141719 0.323408,-0.345211 0,-0.207127 -0.13445,-0.345212 -0.323408,-0.345212 -0.185324,0 -0.323408,0.145352 -0.323408,0.345212 0,0.196225 0.127183,0.345211 0.323408,0.345211 z"
         style="font-style:normal;font-variant:normal;font-weight:bold;font-stretch:normal;font-size:3.63380122px;line-height:1.25;font-family:'Kozuka Gothic Pro';-inkscape-font-specification:'Kozuka Gothic Pro Bold';fill:#1a4396;fill-opacity:1;stroke-width:0.1238647"
         id="path7465"
         inkscape:connector-curvature="0" />
    </g>
  </g>
</svg>
